<?xml version="1.0" encoding="utf-8"?>
<!-- Generator: Adobe Illustrator 24.3.0, SVG Export Plug-In . SVG Version: 6.00 Build 0)  -->
<svg version="1.1" xmlns="http://www.w3.org/2000/svg" xmlns:xlink="http://www.w3.org/1999/xlink" x="0px" y="0px"
	 viewBox="0 0 211.32 302.86" style="enable-background:new 0 0 211.32 302.86;" xml:space="preserve">
<style type="text/css">
	.st0{display:none;}
	.st1{display:inline;fill:#00004C;}
	.st2{fill:#00004C;}
</style>
<g id="Layer_2" class="st0">
	<rect x="-188.63" y="-123.97" class="st1" width="585.19" height="558.49"/>
</g>
<g id="Layer_1">
	<g>
		<g>
			<path class="st2" d="M86.32,125.83c-6.8,2.32-14.12,3.59-21.74,3.59H36.97v59.41H0V6.06h64.58c33.75,0,61.65,24.96,64.46,56.54
				 M92.3,67.51c0-13.83-12.44-25.06-27.72-25.06H36.97v50.57l27.61,0.11C79.86,93.25,92.3,81.68,92.3,67.51"/>
			<polygon class="st2" points="128.17,64 39.48,193.97 115.69,56.4 			"/>
			<path class="st2" d="M136.56,65.21c4.37-0.78,8.92-1.18,13.6-1.18c25.1,0,45.86,10.32,54.19,32.43l-27.27,18.93
				c-5.48-10.89-16.09-15.31-26.35-15.31c-13.81,0-24.07,7.94-24.07,17.35c0,10.89,13.92,14.63,35.03,24.49
				c30.46,14.29,49.63,29.7,49.63,57.82c0,33.33-27.38,54.54-66.74,54.54c-30.12,0-52.37-12.47-64.69-35.15l29.55-20.64
				c8.1,12.93,19.85,18.82,35.71,18.82c17.34,0,28.98-7.03,28.98-16.78c0-13.38-22.02-23.92-41.3-33.45
				c-16.74-8.27-34.82-17.21-41.08-35.82"/>
			<polygon class="st2" points="92.48,129.97 181.16,0 104.96,137.57 			"/>
		</g>
		<g>
			<path class="st2" d="M14.12,283.59c1.51,1.25,2.26,2.99,2.26,5.21c0,2.2-0.75,3.92-2.26,5.17c-1.51,1.25-3.59,1.88-6.25,1.88
				H1.84v6.87H0.3v-21h7.58C10.53,281.71,12.61,282.34,14.12,283.59z M13.04,292.99c1.19-0.98,1.78-2.38,1.78-4.2
				c0-1.82-0.59-3.22-1.78-4.21c-1.19-0.99-2.91-1.49-5.16-1.49H1.84v11.37h6.04C10.13,294.46,11.85,293.97,13.04,292.99z"/>
			<path class="st2" d="M30.55,296.8H18.29l-2.69,5.91h-1.66l9.72-21h1.54l9.72,21h-1.66L30.55,296.8z M29.97,295.51l-5.55-12.12
				l-5.52,12.12H29.97z"/>
			<path class="st2" d="M38.62,300.55c-1.48-1.54-2.22-3.79-2.22-6.75v-12.09h1.54v12.03c0,2.58,0.59,4.51,1.78,5.79
				c1.19,1.28,2.91,1.92,5.16,1.92c2.23,0,3.94-0.64,5.13-1.92c1.19-1.28,1.78-3.21,1.78-5.79v-12.03h1.54v12.09
				c0,2.96-0.75,5.21-2.23,6.75c-1.49,1.54-3.57,2.31-6.25,2.31C42.18,302.86,40.1,302.09,38.62,300.55z"/>
			<path class="st2" d="M69.41,302.07c-1.4-0.53-2.49-1.22-3.28-2.06l0.69-1.14c0.74,0.78,1.75,1.42,3,1.91
				c1.26,0.49,2.58,0.73,3.97,0.73c2.01,0,3.53-0.38,4.56-1.14s1.54-1.75,1.54-2.97c0-0.94-0.27-1.69-0.81-2.25
				c-0.54-0.56-1.22-0.99-2.02-1.29c-0.81-0.3-1.89-0.61-3.26-0.93c-1.55-0.38-2.79-0.75-3.73-1.11c-0.94-0.36-1.73-0.92-2.38-1.67
				c-0.65-0.75-0.98-1.75-0.98-3.02c0-1.02,0.27-1.95,0.81-2.8c0.54-0.85,1.37-1.52,2.49-2.03c1.12-0.5,2.51-0.75,4.18-0.75
				c1.17,0,2.31,0.17,3.44,0.51s2.1,0.8,2.93,1.38l-0.57,1.23c-0.85-0.58-1.78-1.02-2.79-1.32c-1.02-0.3-2.02-0.45-3-0.45
				c-1.95,0-3.43,0.39-4.44,1.17s-1.51,1.79-1.51,3.03c0,0.94,0.27,1.69,0.81,2.25c0.54,0.56,1.22,0.99,2.02,1.29
				c0.8,0.3,1.9,0.62,3.29,0.96c1.55,0.38,2.79,0.75,3.71,1.11c0.93,0.36,1.72,0.91,2.37,1.63c0.65,0.73,0.98,1.72,0.98,2.96
				c0,1.02-0.28,1.95-0.83,2.79c-0.55,0.84-1.4,1.51-2.55,2.01s-2.56,0.75-4.23,0.75C72.29,302.86,70.81,302.6,69.41,302.07z"/>
			<path class="st2" d="M101.25,301.33v1.38H86.67v-21h14.13v1.38H88.21v8.28h11.26v1.35H88.21v8.61H101.25z"/>
			<path class="st2" d="M121.96,292.3h1.48v7.86c-0.93,0.88-2.05,1.55-3.37,2.01c-1.32,0.46-2.71,0.69-4.18,0.69
				c-2.09,0-3.98-0.46-5.66-1.38c-1.68-0.92-3-2.19-3.96-3.81s-1.43-3.44-1.43-5.46c0-2.02,0.48-3.84,1.43-5.46s2.27-2.89,3.96-3.81
				c1.68-0.92,3.58-1.38,5.69-1.38c1.55,0,2.97,0.25,4.27,0.74s2.41,1.21,3.34,2.15l-0.97,1.02c-0.89-0.88-1.88-1.51-2.97-1.91
				c-1.1-0.39-2.31-0.58-3.64-0.58c-1.81,0-3.45,0.4-4.91,1.2s-2.6,1.91-3.43,3.32c-0.83,1.41-1.24,2.98-1.24,4.72
				c0,1.72,0.42,3.29,1.25,4.7s1.98,2.52,3.43,3.33c1.45,0.81,3.08,1.21,4.89,1.21c2.42,0,4.42-0.64,6.01-1.92V292.3z"/>
			<path class="st2" d="M141.1,296.8h-12.26l-2.69,5.91h-1.66l9.72-21h1.54l9.72,21h-1.66L141.1,296.8z M140.52,295.51l-5.55-12.12
				l-5.52,12.12H140.52z"/>
			<path class="st2" d="M163.98,302.71l-5.04-7.02c-0.74,0.1-1.43,0.15-2.05,0.15h-6.04v6.87h-1.54v-21h7.58
				c2.66,0,4.74,0.62,6.25,1.88c1.51,1.25,2.26,2.99,2.26,5.21c0,1.66-0.43,3.06-1.28,4.18c-0.86,1.13-2.08,1.93-3.67,2.39
				l5.28,7.35H163.98z M156.88,294.49c2.25,0,3.97-0.5,5.16-1.49s1.78-2.39,1.78-4.21c0-1.82-0.59-3.22-1.78-4.21
				s-2.91-1.49-5.16-1.49h-6.04v11.4H156.88z"/>
			<path class="st2" d="M185.71,302.71l-5.04-7.02c-0.74,0.1-1.43,0.15-2.05,0.15h-6.04v6.87h-1.54v-21h7.58
				c2.66,0,4.74,0.62,6.25,1.88c1.51,1.25,2.26,2.99,2.26,5.21c0,1.66-0.43,3.06-1.28,4.18c-0.86,1.13-2.08,1.93-3.67,2.39
				l5.28,7.35H185.71z M178.62,294.49c2.25,0,3.97-0.5,5.16-1.49s1.78-2.39,1.78-4.21c0-1.82-0.59-3.22-1.78-4.21
				s-2.91-1.49-5.16-1.49h-6.04v11.4H178.62z"/>
			<path class="st2" d="M205.85,296.8h-12.26l-2.69,5.91h-1.66l9.72-21h1.54l9.72,21h-1.66L205.85,296.8z M205.27,295.51
				l-5.55-12.12l-5.52,12.12H205.27z"/>
		</g>
	</g>
</g>
</svg>
